<?xml version="1.0" encoding="UTF-8"?>
<svg id="Layer_1" xmlns="http://www.w3.org/2000/svg" viewBox="0 0 784 498.7">
  <defs>
    <style>
      .cls-1 {
        fill: #500015;
      }

      .cls-2 {
        fill: #df1713;
      }
    </style>
  </defs>
  <path class="cls-2" d="M158.4,148.1c-30.7-1.3-45.2-17.5-45.2-31.1s7.5-18.4,20.6-17.5c2.6,32.5,19.7,42.6,32.9,42.6s20.2-9.2,20.2-21.1c0-32.5-71.5-34.2-71.5-80.3S135.1.2,161.9.2s39.9,15.8,39.9,29.4-5.3,17.1-17.1,19.7h-1.3c-1.3-29-18.4-42.6-32-42.6s-16.7,6.1-16.7,18.9c0,29,70.2,33.3,70.2,78.1s-23.7,45.2-46.5,43.9v.4Z"/>
  <path class="cls-2" d="M236.5,144.1c11.4-7.9,12.3-35.1,12.3-68.4s0-48.7-1.3-68.9c-28.5,11.8-29.8,34.2-33.3,47.8h-.9c-1.3-15.4-3.9-35.1-8.3-50.5h111.9c-4.4,15.8-7,35.1-8.3,50.9h-.9c-3.1-13.6-4.8-36-32.9-47.8-1.3,20.6-1.3,48.7-1.3,68.9,0,33.3.4,61.4,11.8,68.4v1.8h-48.3v-1.8l-.4-.4Z"/>
  <path class="cls-2" d="M467.7,73.5c0,37.3-24.6,75-79.8,75s-72.4-35.5-72.4-71.9S340,.7,393.5.7s74.6,36,74.6,72.8h-.4ZM408.9,137.5c18.9,0,35.1-12.3,35.1-40.8,0-47.4-40.4-85.5-71.5-85.5s-34.2,11-34.2,41.7c0,48.7,39.5,84.7,70.6,84.7Z"/>
  <path class="cls-2" d="M656.3,181.4c14.5,0,27.2-4.8,35.5-20.2,7.5,4.4,11,11,11,18.4,0,14-13.6,29.8-36.9,30.7-68.9,2.6-115.8-57.5-157.5-127.2,0,28.5,1.3,54,11.8,61.4v1.8h-48.7v-1.8c13.6-9.2,12.3-48.7,12.3-70.6s-.4-62.3-12.3-68v-1.8h43.9c36,0,52.6,19.3,53.1,45.6,0,32.9-19.3,41.7-37.3,42.1-3.1,0-3.9.9-7,0,17.1,27.6,84.2,89.9,131.6,89.9l.4-.4ZM541.8,47.6c0-20.2-9.7-38.6-33.3-38.6v50c0,18.4,6.1,24.6,13.2,24.6s20.6-11.8,20.2-36.4v.4Z"/>
  <path class="cls-2" d="M593.6,144.1c8.3-4.4,11.8-14.9,11.8-29.4s.4-21.5-1.3-31.1c-1.8-9.7-9.7-26.8-14-37.3-11-25.4-17.1-36.9-26.3-40.8v-1.8h50v1.8c-5.7,1.8-7.9,16.7-1.8,32,4.8,11.8,9.7,25.9,14.9,37.7l12.7-36.9c3.5-9.7,8.8-27.6-1.3-32.9v-1.8h29.4v1.8c-10.1,2.2-16.2,18.9-21.5,31.6-7,17.1-13.6,37.3-15.8,48.3-1.8,9.2-.9,18.4-.9,29.4s3.5,25,11.8,29.4v1.8h-47.4v-1.8h-.4Z"/>
  <path class="cls-1" d="M408.9,220c0,18-11.8,36.4-38.6,36.4s-35.1-17.1-35.1-35.1,11.8-36.9,37.7-36.9,36,17.5,36,35.1v.4ZM380.4,251.2c9.2,0,17.1-5.7,17.1-19.7,0-22.8-19.7-41.2-34.7-41.2s-16.7,5.3-16.7,20.2c0,23.7,19.3,40.8,34.2,40.8Z"/>
  <path class="cls-1" d="M410.6,254.2c6.1-4.8,5.7-19.7,5.7-34.7s0-28.5-5.7-32.5v-.9h44.3c-1.8,6.1-3.5,13.6-3.9,21.1h-.4c-3.5-14.5-7-18.4-17.1-18.4h-4.8c0,10.1-.4,22.4-.4,32,0,0,7.5-7.9,12.7-7.9s2.2,0,2.2,0v17.1h-.4c-1.3-4.8-5.3-9.7-9.2-9.7s-3.5.9-5.3,2.6c0,11.4-2.2,25.9,5.7,30.7v.9h-22.8v-.9l-.4.4Z"/>
  <path class="cls-2" d="M28.1,307.3l-5.3,58.3c-3.5,42.1-3.9,54.4,5.3,66.7v1.8H0v-1.8c9.2-10.1,14.5-23.3,17.5-66.2,3.1-37.7,7.5-62.3-6.6-72.4v-1.8h45.2c3.1,22.4,8.8,52.2,19.3,76.8l18.9-76.8h39v1.8c-11.4,16.2-9.7,43-5.3,72.4,4.8,34.7,6.6,53.5,19.3,66.7v1.8h-50.9v-1.8c14.5-13.2,7.9-58.3-1.3-122.8l-30.7,127.2h-2.6c-11.4-40.8-20.2-88.2-34.2-129.4l.4-.4Z"/>
  <path class="cls-2" d="M144.3,433.7v-1.8c9.7-9.2,14.5-12.3,25.4-55.3,7-27.2,14.9-59.7,21.1-86.4h14c4.4,24.1,10.1,43.4,17.5,68.9,13.6,46.1,22.8,70.2,31.6,72.4v1.8h-52.2v-1.8c9.2-7.9,3.9-29,0-46.1-7.9,0-29.8,5.7-32.5,18.4-2.6,14.9-2.6,22.4,4.8,27.6v1.8h-29.4l-.4.4ZM171.1,394.2c4.4-8.8,19.3-14.9,28.5-15.8l-12.7-45.6-15.8,61.4Z"/>
  <path class="cls-2" d="M294.8,436.3c-30.7-1.3-45.2-17.5-45.2-31.1s7.5-18.4,20.6-17.5c2.6,32.5,19.7,42.6,32.9,42.6s20.2-9.2,20.2-21.1c0-32.5-71.5-34.2-71.5-80.3s19.7-40.4,46.5-40.4,39.9,15.8,39.9,29.4-5.3,17.1-17.1,19.7h-1.3c-1.3-29-18.4-42.6-32-42.6s-16.7,6.1-16.7,18.9c0,29,70.2,33.3,70.2,78.1s-23.7,45.2-46.5,43.9v.4Z"/>
  <path class="cls-2" d="M372.9,431.9c11.4-7.9,12.3-35.1,12.3-68.4s0-48.7-1.3-68.9c-28.5,11.8-29.8,34.2-33.3,47.8h-.9c-1.3-15.4-3.9-35.1-8.3-50.5h111.9c-4.4,15.8-7,35.1-8.3,50.9h-.9c-3.1-13.6-4.8-36-32.9-47.8-1.3,20.6-1.3,48.7-1.3,68.9,0,33.3.4,61.4,11.8,68.4v1.8h-48.3v-1.8l-.4-.4Z"/>
  <path class="cls-2" d="M492.2,414.8c0,7,1.3,13.2,7.9,13.2,20.6,0,32.9-8.3,39-43.4h.9c0,17.5,1.8,33.3,5.3,48.7h-89.9v-1.8c12.3-9.7,11.8-37.7,11.8-71.9s-.9-57-11.8-67.1v-1.8h91.7c-3.9,13.2-7.9,28.1-8.3,43.4h-.9c-6.1-22.8-8.3-38.2-35.1-37.7h-10.1c-.9,21.1-.9,41.7-.9,62.3,5.3-6.1,18-12.7,27.6-12.7s11.8,3.1,12.3,11c0,8.8-8.8,13.6-8.8,13.6h0c-2.2-7-8.8-12.7-16.2-12.7s-9.7,1.8-14,6.6c0,21.5,0,27.6.9,50l-1.3.4Z"/>
  <path class="cls-2" d="M737.5,469.6c14.5,0,27.2-4.8,35.5-20.2,7.5,4.4,11,11,11,18.4,0,14-13.6,29.8-36.9,30.7-68.9,2.6-115.8-57.5-157.5-127.2,0,28.5,1.3,54,11.8,61.4v1.8h-48.7v-1.8c13.6-9.2,12.3-48.7,12.3-70.6s-.4-62.3-12.3-68v-1.8h43.9c36,0,52.6,19.3,53.1,45.6,0,32.9-19.3,41.7-37.3,42.1-3.1,0-3.9.9-7,0,17.1,27.6,84.2,89.9,131.6,89.9l.4-.4ZM623,335.8c0-20.2-9.7-38.6-33.3-38.6v50c0,18.4,6.1,24.6,13.2,24.6s20.6-11.8,20.2-36.4v.4Z"/>
  <path class="cls-2" d="M674.7,431.9c8.3-4.4,11.8-14.9,11.8-29.4s.4-21.5-1.3-31.1c-2.2-9.2-9.7-26.8-14-37.3-11-25.4-17.1-36.9-26.3-40.8v-1.8h50v1.8c-5.7,1.8-7.9,16.7-1.8,32,4.8,11.8,9.7,25.9,14.9,37.7l12.7-36.9c3.5-9.7,8.8-27.6-1.3-32.9v-1.8h29.4v1.8c-10.1,2.2-16.2,18.9-21.5,31.6-7,17.1-13.6,37.3-15.8,48.3-1.8,9.2-.9,18.4-.9,29.4s3.5,25,11.8,29.4v1.8h-47.4v-1.8h-.4Z"/>
</svg>