<?xml version="1.0" encoding="UTF-8"?>
<svg id="Layer_1" xmlns="http://www.w3.org/2000/svg" xmlns:xlink="http://www.w3.org/1999/xlink" viewBox="0 0 897.5 656.6">
  <defs>
    <style>
      .cls-1 {
        fill: #500015;
      }

      .cls-2 {
        fill: #ff9319;
      }

      .cls-3 {
        fill: #df1713;
        filter: url(#drop-shadow-1);
      }
    </style>
    <filter id="drop-shadow-1" filterUnits="userSpaceOnUse">
      <feOffset dx="7" dy="7"/>
      <feGaussianBlur result="blur" stdDeviation="8"/>
      <feFlood flood-color="#020202" flood-opacity=".2"/>
      <feComposite in2="blur" operator="in"/>
      <feComposite in="SourceGraphic"/>
    </filter>
  </defs>
  <rect class="cls-2" width="897.5" height="656.6"/>
  <rect class="cls-3" x="93.2" y="56.7" width="716.3" height="518.2" rx="83.3" ry="83.3"/>
  <g>
    <path class="cls-2" d="M223.6,243.6l8.3-34.1,1,.2c3.5,14.2,12.4,42.3,31.6,42.3s18.2-6.3,18.2-17c0-26.6-56.9-27.8-56.9-65.3s17-32.9,38.9-32.9,31.6,11.6,31.6,11.6l-11.9,28.8h-1c-3.3-25.6-15.5-35.1-25.8-35.1s-15.9,6.4-15.9,15.4c0,23.5,56.1,27.3,56.1,63.7s-13.1,35.9-40,35.9-34.1-13.4-34.1-13.4Z"/>
    <path class="cls-2" d="M323.8,253.6c9.4-6.4,9.9-28.6,9.9-55.9s0-39.5-1.2-56.2c-23.3,9.8-24.5,27.9-27.1,38.9l-.8.2c-1.2-12.7-3.3-28.6-6.8-41.3h91.3c-3.5,12.7-5.8,28.6-6.8,41.3l-.8-.2c-2.5-11.1-4-29.1-27-38.9-1.2,16.7-1.2,39.5-1.2,56.2,0,27.3.5,50.1,9.8,55.9l-.2,1.3h-39l-.2-1.3Z"/>
    <path class="cls-2" d="M512.3,195.9c0,30.4-20.2,61.2-65.2,61.2s-59-29.1-59-58.7,19.8-61.7,63.5-61.7,60.7,29.4,60.7,59.2ZM464.5,248.4c15.4,0,28.8-9.9,28.8-33.4,0-38.7-33.1-69.6-58.4-69.6s-27.9,9.1-27.9,34.1c0,39.7,32.2,69,57.5,69Z"/>
    <path class="cls-2" d="M667.1,307.7c-59.5.8-97.1-57.4-112.3-93.9-3.1-.3-6.4-.8-9.8-1.7.3,19.8,2.1,36.5,9.8,41.5l-.2,1.3h-38.9l-.2-1.3c9.6-6,9.9-30.3,9.8-57.7-.2-26.5-1-50.3-9.8-55.4l.2-1.3,36-.2c29.4-.2,43.2,14.9,43.2,36.2s-12.6,36.4-29.6,38.5c25,45.6,60.4,69.1,97.6,69.1s28.6-6.1,37-19.3c.3.2.8,0,.8.3v32.6c-11.9,8.6-23.5,11.1-33.7,11.2ZM572,173.9c0-18.2-8.3-30.3-26.8-30.3l-.2,64c19.2,1.8,27-9.3,27-33.7Z"/>
    <path class="cls-2" d="M614.8,253.6c6.8-3.6,9.6-12.1,9.6-24s.5-17.7-1.2-25.3c-1.7-7.6-7.8-21.8-11.4-30.4-8.9-20.7-13.9-30.1-21.5-33.4l.2-1.3h40.5l.2,1.3c-5,1.3-6.6,13.6-1.7,26,3.8,9.6,7.8,21.2,12.2,30.9l10.4-29.9c2.8-7.9,7.1-22.5-1.2-27l.2-1.3h23.8l.2,1.3c-8.4,1.8-13.2,15.5-17.5,25.8-5.8,14.1-11.2,30.3-12.7,39.4-1.3,7.6-.8,15-.8,24s3,20.5,9.6,24l-.2,1.3h-38.5l-.2-1.3Z"/>
  </g>
  <g>
    <path class="cls-1" d="M464.3,315.5c0,14.7-9.8,29.6-31.6,29.6s-28.6-14.1-28.6-28.4,9.6-29.9,30.8-29.9,29.4,14.3,29.4,28.7ZM441.1,340.9c7.5,0,13.9-4.8,13.9-16.2,0-18.7-16-33.7-28.3-33.7s-13.5,4.4-13.5,16.5c0,19.2,15.6,33.4,27.9,33.4Z"/>
    <path class="cls-1" d="M465.9,343.5c5-3.9,4.7-15.9,4.7-28.4s0-23.1-4.7-26.4v-.6h36.2c-1.6,5.1-3,11.1-3.2,17.1h-.5c-2.7-11.9-5.7-15.1-13.8-14.9h-4.1c-.3,8.3-.4,18.1-.4,26.1,0,0,6.2-6.3,10.4-6.3s1.9.2,1.9.2v14h-.5c-1.1-4-4.2-7.8-7.6-7.8s-2.8.6-4.2,2.1c0,9.1-1.7,20.9,4.6,24.9v.6h-18.7v-.6Z"/>
  </g>
  <g>
    <path class="cls-2" d="M154.1,386.5l-4.1,47.6c-3,34.4-3.1,44.5,4.3,54.2l-.2,1.3h-22.8l-.2-1.3c7.8-8.1,11.9-19,14.6-54.1,2.5-30.9,6-50.9-5.5-59l.2-1.3h36.5c2.6,18.2,7.1,42.7,15.7,62.5l15.4-62.5h31.8l.2,1.3c-9.6,13.1-7.9,34.9-4.3,58.9,4,28.3,5.5,43.7,15.7,54.2v1.3h-41.3l-.2-1.3c12.1-10.7,6.4-47.6-.8-100.2l-25.1,103.9-2,.2c-9.3-33.6-16.5-71.9-27.8-105.7Z"/>
    <path class="cls-2" d="M248.8,489.7l-.2-1.3c7.9-7.4,12.1-9.9,20.8-45,5.6-22,12.4-48.6,17-70.3h11.6c3.6,19.5,8.3,35.6,14.4,56.2,10.9,37.5,18.4,57.4,25.5,59l-.2,1.3h-42l-.2-1.3c6.3-6.3,4.1-18.2,1.2-32.4h-25.6c-3.1,12.6-7.4,26.3,1.5,32.4l-.2,1.3h-23.6ZM272,451.8l23.6-.3-12.2-44.3-11.4,44.7Z"/>
    <path class="cls-2" d="M334.8,478.2l8.3-34.1,1,.2c3.5,14.2,12.4,42.3,31.6,42.3s18.2-6.3,18.2-17c0-26.6-56.9-27.8-56.9-65.3s17-32.9,38.9-32.9,31.6,11.6,31.6,11.6l-11.9,28.8h-1c-3.3-25.6-15.5-35.1-25.8-35.1s-15.9,6.4-15.9,15.4c0,23.5,56.1,27.3,56.1,63.7s-13.1,35.9-40,35.9-34.1-13.4-34.1-13.4Z"/>
    <path class="cls-2" d="M435,488.3c9.4-6.4,9.9-28.6,9.9-55.9s0-39.5-1.2-56.2c-23.3,9.8-24.5,27.9-27.1,38.9l-.8.2c-1.2-12.7-3.3-28.6-6.8-41.3h91.3c-3.5,12.7-5.8,28.6-6.8,41.3l-.8-.2c-2.5-11.1-4-29.1-27-38.9-1.2,16.7-1.2,39.5-1.2,56.2,0,27.3.5,50.1,9.8,55.9l-.2,1.3h-39l-.2-1.3Z"/>
    <path class="cls-2" d="M502.2,488.3c10.1-7.9,9.8-30.6,9.8-58.5s-.7-46.6-9.8-54.6l.2-1.3h74.6c-3.1,10.6-6.6,23-6.8,35.2h-.8c-5.1-18.5-6.6-31.3-28.6-30.8h-8.3c-.7,17-.8,32.9-.8,49.4,0,0,12.9-13.1,21.2-13.1s4.3.5,4.3.5v28.9l-1,.2c-2.5-8.8-7.6-16.9-14.6-16.9s-6.3,1.5-9.9,5c0,17.4.2,23.8.7,41.8.2,5.8,1,10.7,6.3,10.7,16.9.2,27-6.9,31.9-35.2l.8-.2c.2,14.4,1.5,27.3,4.3,40h-73.3l-.2-1.3Z"/>
    <path class="cls-2" d="M733.2,542.4c-59.5.8-97.1-57.4-112.3-93.9-3.1-.3-6.4-.8-9.8-1.7.3,19.8,2.1,36.5,9.8,41.5l-.2,1.3h-38.9l-.2-1.3c9.6-6,9.9-30.3,9.8-57.7-.2-26.5-1-50.3-9.8-55.4l.2-1.3,36-.2c29.4-.2,43.2,14.9,43.2,36.2s-12.6,36.4-29.6,38.5c25,45.6,60.4,69.1,97.6,69.1s28.6-6.1,37-19.3c.3.2.8,0,.8.3v32.6c-11.9,8.6-23.5,11.1-33.7,11.2ZM638.1,408.6c0-18.2-8.3-30.3-26.8-30.3l-.2,64c19.2,1.8,27-9.3,27-33.7Z"/>
    <path class="cls-2" d="M680.9,488.3c6.8-3.6,9.6-12.1,9.6-24s.5-17.7-1.2-25.3c-1.7-7.6-7.8-21.8-11.4-30.4-8.9-20.7-13.9-30.1-21.5-33.4l.2-1.3h40.5l.2,1.3c-5,1.3-6.6,13.6-1.7,26,3.8,9.6,7.8,21.2,12.2,30.9l10.4-29.9c2.8-7.9,7.1-22.5-1.2-27l.2-1.3h23.8l.2,1.3c-8.4,1.8-13.2,15.5-17.5,25.8-5.8,14.1-11.2,30.3-12.7,39.4-1.3,7.6-.8,15-.8,24s3,20.5,9.6,24l-.2,1.3h-38.5l-.2-1.3Z"/>
  </g>
</svg>