<?xml version="1.0" encoding="UTF-8"?>
<svg id="Layer_1" xmlns="http://www.w3.org/2000/svg" viewBox="0 0 897.5 656.6">
  <defs>
    <style>
      .cls-1 {
        fill: #500015;
      }

      .cls-2 {
        fill: #df1713;
      }

      .cls-3 {
        fill: #ff9319;
      }
    </style>
  </defs>
  <rect class="cls-3" width="897.5" height="656.6"/>
  <g>
    <path class="cls-2" d="M171.5,230.2l10.3-42.4,1.2.2c4.3,17.6,15.4,52.6,39.3,52.6s22.6-7.8,22.6-21.1c0-33-70.7-34.5-70.7-81.1s21.1-40.9,48.3-40.9,39.3,14.4,39.3,14.4l-14.8,35.8h-1.2c-4.1-31.8-19.3-43.6-32.1-43.6s-19.8,8-19.8,19.1c0,29.2,69.7,33.9,69.7,79.1s-16.3,44.6-49.7,44.6-42.4-16.6-42.4-16.6h-.1Z"/>
    <path class="cls-2" d="M296,242.7c11.7-8,12.3-35.5,12.3-69.5s0-49.1-1.5-69.8c-28.9,12.2-30.4,34.7-33.7,48.3l-1,.2c-1.5-15.8-4.1-35.5-8.4-51.3h113.4c-4.3,15.8-7.2,35.5-8.4,51.3l-1-.2c-3.1-13.8-5-36.2-33.5-48.3-1.5,20.7-1.5,49.1-1.5,69.8,0,33.9.6,62.2,12.2,69.5l-.2,1.6h-48.5l-.2-1.6h.1Z"/>
    <path class="cls-2" d="M530.2,171c0,37.8-25.1,76-81,76s-73.3-36.2-73.3-72.9,24.6-76.7,78.9-76.7,75.4,36.5,75.4,73.6h0ZM470.8,236.2c19.1,0,35.8-12.3,35.8-41.5,0-48.1-41.1-86.5-72.6-86.5s-34.7,11.3-34.7,42.4c0,49.3,40,85.7,71.4,85.7h0Z"/>
    <path class="cls-2" d="M722.5,309.9c-73.9,1-120.6-71.3-139.5-116.7-3.9-.4-8-1-12.2-2.1.4,24.6,2.6,45.3,12.2,51.6l-.2,1.6h-48.3l-.2-1.6c11.9-7.5,12.3-37.6,12.2-71.7-.2-32.9-1.2-62.5-12.2-68.8l.2-1.6,44.7-.2c36.5-.2,53.7,18.5,53.7,45s-15.7,45.2-36.8,47.8c31.1,56.7,75,85.9,121.3,85.9s35.5-7.6,46-24c.4.2,1,0,1,.4v40.5c-14.8,10.7-29.2,13.8-41.9,13.9h.1ZM604.3,143.6c0-22.6-10.3-37.6-33.3-37.6l-.2,79.5c23.9,2.2,33.5-11.6,33.5-41.9Z"/>
    <path class="cls-2" d="M657.5,242.7c8.4-4.5,11.9-15,11.9-29.8s.6-22-1.5-31.4-9.7-27.1-14.2-37.8c-11.1-25.7-17.3-37.4-26.7-41.5l.2-1.6h50.3l.2,1.6c-6.2,1.6-8.2,16.9-2.1,32.3,4.7,11.9,9.7,26.3,15.2,38.4l12.9-37.1c3.5-9.8,8.8-28-1.5-33.5l.2-1.6h29.6l.2,1.6c-10.4,2.2-16.4,19.3-21.7,32.1-7.2,17.5-13.9,37.6-15.8,49-1.6,9.4-1,18.6-1,29.8s3.7,25.5,11.9,29.8l-.2,1.6h-47.8l-.2-1.6h0Z"/>
  </g>
  <g>
    <path class="cls-1" d="M470.5,319.6c0,18.3-12.2,36.8-39.3,36.8s-35.5-17.5-35.5-35.3,11.9-37.1,38.3-37.1,36.5,17.8,36.5,35.7h0ZM441.7,351.1c9.3,0,17.3-6,17.3-20.1,0-23.2-19.9-41.9-35.2-41.9s-16.8,5.5-16.8,20.5c0,23.9,19.4,41.5,34.7,41.5h0Z"/>
    <path class="cls-1" d="M472.5,354.4c6.2-4.8,5.8-19.8,5.8-35.3s0-28.7-5.8-32.8v-.7h45c-2,6.3-3.7,13.8-4,21.2h-.6c-3.4-14.8-7.1-18.8-17.1-18.5h-5.1c-.4,10.3-.5,22.5-.5,32.4,0,0,7.7-7.8,12.9-7.8s2.4.2,2.4.2v17.4h-.6c-1.4-5-5.2-9.7-9.4-9.7s-3.5.7-5.2,2.6c0,11.3-2.1,26,5.7,30.9v.7h-23.2v-.7h-.1Z"/>
  </g>
  <g>
    <path class="cls-2" d="M85.1,407.8l-5.1,59.1c-3.7,42.7-3.9,55.3,5.3,67.3l-.2,1.6h-28.3l-.2-1.6c9.7-10.1,14.8-23.6,18.1-67.2,3.1-38.4,7.5-63.2-6.8-73.3l.2-1.6h45.3c3.2,22.6,8.8,53.1,19.5,77.7l19.1-77.7h39.5l.2,1.6c-11.9,16.3-9.8,43.4-5.3,73.2,5,35.2,6.8,54.3,19.5,67.3v1.6h-51.3l-.2-1.6c15-13.3,8-59.1-1-124.5l-31.2,129.1-2.5.2c-11.6-41.7-20.5-89.3-34.5-131.3h-.1Z"/>
    <path class="cls-2" d="M202.8,536l-.2-1.6c9.8-9.2,15-12.3,25.8-55.9,7-27.3,15.4-60.4,21.1-87.3h14.4c4.5,24.2,10.3,44.2,17.9,69.8,13.5,46.6,22.9,71.3,31.7,73.3l-.2,1.6h-52.2l-.2-1.6c7.8-7.8,5.1-22.6,1.5-40.3h-31.8c-3.9,15.7-9.2,32.7,1.9,40.3l-.2,1.6h-29.3,0ZM231.6,488.9l29.3-.4-15.2-55-14.2,55.5h0Z"/>
    <path class="cls-2" d="M309.6,521.7l10.3-42.4,1.2.2c4.3,17.6,15.4,52.6,39.3,52.6s22.6-7.8,22.6-21.1c0-33-70.7-34.5-70.7-81.1s21.1-40.9,48.3-40.9,39.3,14.4,39.3,14.4l-14.8,35.8h-1.2c-4.1-31.8-19.3-43.6-32.1-43.6s-19.8,8-19.8,19.1c0,29.2,69.7,33.9,69.7,79.1s-16.3,44.6-49.7,44.6-42.4-16.6-42.4-16.6h-.1Z"/>
    <path class="cls-2" d="M434.1,534.3c11.7-8,12.3-35.5,12.3-69.5s0-49.1-1.5-69.8c-28.9,12.2-30.4,34.7-33.7,48.3l-1,.2c-1.5-15.8-4.1-35.5-8.4-51.3h113.4c-4.3,15.8-7.2,35.5-8.4,51.3l-1-.2c-3.1-13.8-5-36.2-33.5-48.3-1.5,20.7-1.5,49.1-1.5,69.8,0,33.9.6,62.2,12.2,69.5l-.2,1.6h-48.5l-.2-1.6h.1Z"/>
    <path class="cls-2" d="M517.6,534.3c12.5-9.8,12.2-38,12.2-72.7s-.9-57.9-12.2-67.8l.2-1.6h92.7c-3.9,13.2-8.2,28.6-8.4,43.7h-1c-6.3-23-8.2-38.9-35.5-38.3h-10.3c-.9,21.1-1,40.9-1,61.4,0,0,16-16.3,26.3-16.3s5.3.6,5.3.6v35.9l-1.2.2c-3.1-10.9-9.4-21-18.1-21s-7.8,1.9-12.3,6.2c0,21.6.2,29.6.9,51.9.2,7.2,1.2,13.3,7.8,13.3,21,.2,33.5-8.6,39.6-43.7l1-.2c.2,17.9,1.9,33.9,5.3,49.7h-91.1l-.2-1.6v.2Z"/>
    <path class="cls-2" d="M804.6,601.5c-73.9,1-120.6-71.3-139.5-116.7-3.9-.4-8-1-12.2-2.1.4,24.6,2.6,45.3,12.2,51.6l-.2,1.6h-48.3l-.2-1.6c11.9-7.5,12.3-37.6,12.2-71.7-.2-32.9-1.2-62.5-12.2-68.8l.2-1.6,44.7-.2c36.5-.2,53.7,18.5,53.7,45s-15.7,45.2-36.8,47.8c31.1,56.7,75,85.9,121.3,85.9s35.5-7.6,46-24c.4.2,1,0,1,.4v40.5c-14.8,10.7-29.2,13.8-41.9,13.9h.1ZM686.5,435.2c0-22.6-10.3-37.6-33.3-37.6l-.2,79.5c23.9,2.2,33.5-11.6,33.5-41.9Z"/>
    <path class="cls-2" d="M739.6,534.3c8.4-4.5,11.9-15,11.9-29.8s.6-22-1.5-31.4c-2.1-9.4-9.7-27.1-14.2-37.8-11.1-25.7-17.3-37.4-26.7-41.5l.2-1.6h50.3l.2,1.6c-6.2,1.6-8.2,16.9-2.1,32.3,4.7,11.9,9.7,26.3,15.2,38.4l12.9-37.1c3.5-9.8,8.8-28-1.5-33.5l.2-1.6h29.6l.2,1.6c-10.4,2.2-16.4,19.3-21.7,32.1-7.2,17.5-13.9,37.6-15.8,49-1.6,9.4-1,18.6-1,29.8s3.7,25.5,11.9,29.8l-.2,1.6h-47.8l-.2-1.6h0Z"/>
  </g>
</svg>