<?xml version="1.0" encoding="UTF-8"?>
<svg id="Layer_1" data-name="Layer 1" xmlns="http://www.w3.org/2000/svg" viewBox="0 0 482.4 482.4">
  <defs>
    <style>
      .cls-1 {
        fill: #ff9319;
      }

      .cls-1, .cls-2, .cls-3 {
        stroke-width: 0px;
      }

      .cls-2 {
        fill: #500015;
      }

      .cls-3 {
        fill: #df1713;
      }
    </style>
  </defs>
  <circle class="cls-3" cx="241.2" cy="241.2" r="241.2"/>
  <g>
    <g>
      <path class="cls-1" d="M121,199.7l4.5-18.6h.5c1.9,7.8,6.8,23.1,17.2,23.1s9.9-3.4,9.9-9.3c0-14.5-31-15.1-31-35.6s9.3-17.9,21.2-17.9,17.2,6.3,17.2,6.3l-6.5,15.7h-.5c-1.8-14-8.5-19.1-14-19.1s-8.6,3.5-8.6,8.4c0,12.8,30.5,14.9,30.5,34.7s-7.1,19.5-21.8,19.5-18.6-7.3-18.6-7.3Z"/>
      <path class="cls-1" d="M175.6,205.2c5.1-3.5,5.4-15.6,5.4-30.4s0-21.5-.6-30.6c-12.7,5.3-13.3,15.2-14.8,21.2h-.5c-.6-6.8-1.8-15.5-3.7-22.4h49.7c-1.9,6.9-3.2,15.6-3.7,22.5h-.5c-1.4-6.1-2.2-15.9-14.7-21.3-.6,9.1-.6,21.5-.6,30.6,0,14.9.3,27.3,5.3,30.4v.7h-21.3v-.7Z"/>
      <path class="cls-1" d="M278.3,173.7c0,16.6-11,33.3-35.5,33.3s-32.2-15.9-32.2-32,10.8-33.6,34.6-33.6,33.1,16,33.1,32.2ZM252.2,202.3c8.4,0,15.7-5.4,15.7-18.2,0-21.1-18-37.9-31.8-37.9s-15.2,5-15.2,18.6c0,21.6,17.6,37.6,31.3,37.6Z"/>
      <path class="cls-1" d="M362.5,234.6c-32.4.5-52.9-31.2-61.1-51.2-1.7-.2-3.5-.5-5.3-.9.2,10.8,1.2,19.9,5.3,22.6v.7h-21.3v-.7c5.1-3.2,5.3-16.5,5.2-31.4,0-14.4-.5-27.4-5.3-30.2v-.7c0,0,19.7,0,19.7,0,16,0,23.5,8.1,23.5,19.7s-6.8,19.8-16.1,21c13.6,24.9,32.9,37.6,53.1,37.6s15.6-3.3,20.2-10.5c.2,0,.5,0,.5.2v17.7c-6.5,4.7-12.8,6-18.4,6.1ZM310.8,161.8c0-9.9-4.5-16.5-14.6-16.5v34.9c10.4,1,14.6-5,14.6-18.4Z"/>
      <path class="cls-1" d="M334.1,205.2c3.7-2,5.2-6.6,5.2-13.1s.3-9.6-.6-13.8c-.9-4.1-4.2-11.9-6.2-16.6-4.9-11.3-7.6-16.4-11.7-18.2v-.7h22.2v.7c-2.6.7-3.5,7.4-.8,14.1,2.1,5.2,4.2,11.5,6.7,16.8l5.7-16.3c1.5-4.3,3.9-12.2-.6-14.7v-.7h13.1v.7c-4.5,1-7.1,8.5-9.5,14-3.2,7.7-6.1,16.5-6.9,21.4-.7,4.1-.5,8.2-.5,13.1s1.6,11.2,5.2,13.1v.7h-21.1v-.7Z"/>
    </g>
    <g>
      <path class="cls-2" d="M252.1,238.9c0,8-5.3,16.1-17.2,16.1s-15.6-7.7-15.6-15.5,5.2-16.3,16.8-16.3,16,7.8,16,15.6ZM239.5,252.7c4.1,0,7.6-2.6,7.6-8.8,0-10.2-8.7-18.4-15.4-18.4s-7.4,2.4-7.4,9c0,10.5,8.5,18.2,15.2,18.2Z"/>
      <path class="cls-2" d="M253,254.1c2.7-2.1,2.6-8.7,2.6-15.4s0-12.6-2.6-14.4v-.3h19.7c-.9,2.8-1.6,6.1-1.7,9.3h-.3c-1.5-6.5-3.1-8.2-7.5-8.1h-2.2c-.2,4.5-.2,9.9-.2,14.2,0,0,3.4-3.4,5.7-3.4s1,.1,1,.1v7.6h-.3c-.6-2.2-2.3-4.2-4.1-4.2s-1.5.3-2.3,1.1c0,5-.9,11.4,2.5,13.6v.3h-10.2v-.3Z"/>
    </g>
    <g>
      <path class="cls-1" d="M83.2,277.5l-2.3,25.9c-1.6,18.7-1.7,24.2,2.3,29.5v.7h-12.5v-.7c4.1-4.4,6.4-10.4,7.8-29.4,1.4-16.8,3.2-27.7-3-32.2v-.7h20c1.4,9.9,3.9,23.2,8.6,34l8.4-34h17.3v.7c-5.1,7.1-4.2,19-2.3,32.1,2.2,15.4,3,23.8,8.6,29.5v.7h-22.5v-.7c6.5-5.9,3.4-25.9-.5-54.6l-13.7,56.6h-1.1c-5-18.2-9-39.1-15.1-57.5Z"/>
      <path class="cls-1" d="M134.8,333.7v-.7c4.2-4.1,6.5-5.4,11.3-24.5,3.1-12,6.8-26.5,9.3-38.3h6.3c2,10.6,4.5,19.4,7.8,30.6,5.9,20.4,10,31.2,13.9,32.2v.7h-23v-.7c3.3-3.4,2.2-9.9.5-17.7h-14c-1.7,6.8-4.1,14.3.8,17.7v.7h-13ZM147.4,313.1l12.9-.2-6.7-24.1-6.2,24.3Z"/>
      <path class="cls-1" d="M181.6,327.5l4.5-18.6h.5c1.9,7.8,6.8,23.1,17.2,23.1s9.9-3.4,9.9-9.3c0-14.5-31-15.1-31-35.6s9.3-17.9,21.2-17.9,17.2,6.3,17.2,6.3l-6.5,15.7h-.5c-1.8-14-8.5-19.1-14-19.1s-8.6,3.5-8.6,8.4c0,12.8,30.5,14.9,30.5,34.7s-7.1,19.5-21.8,19.5-18.6-7.3-18.6-7.3Z"/>
      <path class="cls-1" d="M236.2,333c5.1-3.5,5.4-15.6,5.4-30.4s0-21.5-.6-30.6c-12.7,5.3-13.3,15.2-14.8,21.2h-.5c-.6-6.8-1.8-15.5-3.7-22.4h49.7c-1.9,6.9-3.2,15.6-3.7,22.5h-.5c-1.4-6.1-2.2-15.9-14.7-21.3-.6,9.1-.6,21.5-.6,30.6,0,14.9.3,27.3,5.3,30.4v.7h-21.3v-.7Z"/>
      <path class="cls-1" d="M272.7,333c5.5-4.3,5.3-16.7,5.3-31.9s-.4-25.4-5.3-29.7v-.7h40.7c-1.7,5.8-3.6,12.5-3.7,19.2h-.5c-2.8-10.1-3.6-17-15.6-16.8h-4.5c-.4,9.3-.5,17.9-.5,26.9,0,0,7-7.1,11.5-7.1s2.3.3,2.3.3v15.8h-.5c-1.4-4.7-4.1-9.1-7.9-9.1s-3.4.8-5.4,2.7c0,9.5,0,13,.4,22.8,0,3.2.5,5.9,3.4,5.9,9.2,0,14.7-3.8,17.4-19.2h.5c0,7.7.8,14.8,2.3,21.7h-39.9v-.7Z"/>
      <path class="cls-1" d="M398.5,362.4c-32.4.5-52.9-31.2-61.1-51.2-1.7-.2-3.5-.5-5.3-.9.2,10.8,1.2,19.9,5.3,22.6v.7h-21.3v-.7c5.1-3.2,5.3-16.5,5.2-31.4,0-14.4-.5-27.4-5.3-30.2v-.7c0,0,19.7,0,19.7,0,16,0,23.5,8.1,23.5,19.7s-6.8,19.8-16.1,21c13.6,24.9,32.9,37.6,53.1,37.6s15.6-3.3,20.2-10.5c.2,0,.5,0,.5.2v17.7c-6.5,4.7-12.8,6-18.4,6.1ZM346.7,289.6c0-9.9-4.5-16.5-14.6-16.5v34.9c10.4,1,14.6-5,14.6-18.4Z"/>
      <path class="cls-1" d="M370.1,333c3.7-2,5.2-6.6,5.2-13.1s.3-9.6-.6-13.8c-.9-4.1-4.2-11.9-6.2-16.6-4.9-11.3-7.6-16.4-11.7-18.2v-.7h22.2v.7c-2.6.7-3.5,7.4-.8,14.1,2.1,5.2,4.2,11.5,6.7,16.8l5.7-16.3c1.5-4.3,3.9-12.2-.6-14.7v-.7h13.1v.7c-4.5,1-7.1,8.5-9.5,14-3.2,7.7-6.1,16.5-6.9,21.4-.7,4.1-.5,8.2-.5,13.1s1.6,11.2,5.2,13.1v.7h-21.1v-.7Z"/>
    </g>
  </g>
</svg>