<?xml version="1.0" encoding="UTF-8"?>
<svg id="Layer_1" xmlns="http://www.w3.org/2000/svg" xmlns:xlink="http://www.w3.org/1999/xlink" viewBox="0 0 457 386.9">
  <defs>
    <style>
      .cls-1 {
        filter: url(#drop-shadow-1);
      }

      .cls-2 {
        fill: #500015;
      }

      .cls-3 {
        fill: #df1713;
      }

      .cls-4 {
        fill: #fff;
      }

      .cls-5 {
        fill: #ff9319;
      }
    </style>
    <filter id="drop-shadow-1" filterUnits="userSpaceOnUse">
      <feOffset dx="7" dy="7"/>
      <feGaussianBlur result="blur" stdDeviation="5"/>
      <feFlood flood-color="#500015" flood-opacity=".8"/>
      <feComposite in2="blur" operator="in"/>
      <feComposite in="SourceGraphic"/>
    </filter>
  </defs>
  <rect class="cls-5" width="457" height="386.9"/>
  <g class="cls-1">
    <g>
      <path class="cls-3" d="M396.9,349.5H63.7c-10.6,0-17.3-11.5-12-20.7L218.3,40.3c5.3-9.2,18.6-9.2,23.9,0l166.6,288.5c5.3,9.2-1.3,20.7-12,20.7Z"/>
      <path class="cls-5" d="M174.4,255.8c-7-.3-10.3-4-10.3-7.1s1.7-4.2,4.7-4c.6,7.4,4.5,9.7,7.5,9.7s4.6-2.1,4.6-4.8c0-7.4-16.3-7.8-16.3-18.3s4.5-9.2,10.6-9.2,9.1,3.6,9.1,6.7-1.2,3.9-3.9,4.5h-.3c-.3-6.6-4.2-9.7-7.3-9.7s-3.8,1.4-3.8,4.3c0,6.6,16,7.6,16,17.8s-5.4,10.3-10.6,10Z"/>
      <path class="cls-5" d="M192.2,254.9c2.6-1.8,2.8-8,2.8-15.6s0-11.1-.3-15.7c-6.5,2.7-6.8,7.8-7.6,10.9h-.2c-.3-3.5-.9-8-1.9-11.5h25.5c-1,3.6-1.6,8-1.9,11.6h-.2c-.7-3.1-1.1-8.2-7.5-10.9-.3,4.7-.3,11.1-.3,15.7,0,7.6.1,14,2.7,15.6v.4h-11v-.4Z"/>
      <path class="cls-5" d="M244.9,238.8c0,8.5-5.6,17.1-18.2,17.1s-16.5-8.1-16.5-16.4,5.6-17.3,17.8-17.3,17,8.2,17,16.6ZM231.5,253.4c4.3,0,8-2.8,8-9.3,0-10.8-9.2-19.5-16.3-19.5s-7.8,2.5-7.8,9.5c0,11.1,9,19.3,16.1,19.3Z"/>
      <path class="cls-5" d="M287.9,263.4c3.3,0,6.2-1.1,8.1-4.6,1.7,1,2.5,2.5,2.5,4.2,0,3.2-3.1,6.8-8.4,7-15.7.6-26.4-13.1-35.9-29,0,6.5.3,12.3,2.7,14v.4h-11.1v-.4c3.1-2.1,2.8-11.1,2.8-16.1s-.1-14.2-2.8-15.5v-.4s10,0,10,0c8.2,0,12,4.4,12.1,10.4,0,7.5-4.4,9.5-8.5,9.6-.7,0-.9.2-1.6,0,3.9,6.3,19.2,20.5,30,20.5ZM261.8,232.9c0-4.6-2.2-8.8-7.6-8.8v11.4c0,4.2,1.4,5.6,3,5.6,2.1,0,4.7-2.7,4.6-8.3Z"/>
      <path class="cls-5" d="M273.6,254.9c1.9-1,2.7-3.4,2.7-6.7s.1-4.9-.3-7.1-2.2-6.1-3.2-8.5c-2.5-5.8-3.9-8.4-6-9.3v-.4h11.4v.4c-1.3.4-1.8,3.8-.4,7.3,1.1,2.7,2.2,5.9,3.4,8.6l2.9-8.4c.8-2.2,2-6.3-.3-7.5v-.4h6.7v.4c-2.3.5-3.7,4.3-4.9,7.2-1.6,3.9-3.1,8.5-3.6,11-.4,2.1-.2,4.2-.2,6.7s.8,5.7,2.7,6.7v.4h-10.8v-.4Z"/>
      <path class="cls-2" d="M231.5,272.2c0,4.1-2.7,8.3-8.8,8.3s-8-3.9-8-8,2.7-8.4,8.6-8.4,8.2,4,8.2,8ZM225,279.3c2.1,0,3.9-1.3,3.9-4.5,0-5.2-4.5-9.4-7.9-9.4s-3.8,1.2-3.8,4.6c0,5.4,4.4,9.3,7.8,9.3Z"/>
      <path class="cls-2" d="M231.9,280c1.4-1.1,1.3-4.5,1.3-7.9s0-6.5-1.3-7.4v-.2h10.1c-.4,1.4-.8,3.1-.9,4.8h-.1c-.8-3.3-1.6-4.2-3.9-4.2h-1.1c0,2.3-.1,5.1-.1,7.3,0,0,1.7-1.8,2.9-1.8s.5,0,.5,0v3.9h-.1c-.3-1.1-1.2-2.2-2.1-2.2s-.8.2-1.2.6c0,2.6-.5,5.9,1.3,7v.2h-5.2v-.2Z"/>
      <path class="cls-5" d="M144.7,292.1l-1.2,13.3c-.8,9.6-.9,12.4,1.2,15.2v.4h-6.4v-.4c2.1-2.3,3.3-5.3,4-15.1.7-8.6,1.7-14.2-1.5-16.5v-.4h10.3c.7,5.1,2,11.9,4.4,17.5l4.3-17.5h8.9v.4c-2.6,3.7-2.2,9.8-1.2,16.5,1.1,7.9,1.5,12.2,4.4,15.2v.4h-11.6v-.4c3.3-3,1.8-13.3-.3-28l-7,29h-.6c-2.6-9.3-4.6-20.1-7.8-29.5Z"/>
      <path class="cls-5" d="M171.2,320.9v-.4c2.2-2.1,3.3-2.8,5.8-12.6,1.6-6.2,3.4-13.6,4.8-19.7h3.2c1,5.5,2.3,9.9,4,15.7,3.1,10.5,5.2,16,7.2,16.5v.4h-11.9v-.4c2.1-1.8.9-6.6,0-10.5-1.8,0-6.8,1.3-7.4,4.2-.6,3.4-.6,5.1,1.1,6.3v.4h-6.7ZM177.3,311.9c1-2,4.4-3.4,6.5-3.6l-2.9-10.4-3.6,14Z"/>
      <path class="cls-5" d="M205.5,321.5c-7-.3-10.3-4-10.3-7.1s1.7-4.2,4.7-4c.6,7.4,4.5,9.7,7.5,9.7s4.6-2.1,4.6-4.8c0-7.4-16.3-7.8-16.3-18.3s4.5-9.2,10.6-9.2,9.1,3.6,9.1,6.7-1.2,3.9-3.9,4.5h-.3c-.3-6.6-4.2-9.7-7.3-9.7s-3.8,1.4-3.8,4.3c0,6.6,16,7.6,16,17.8s-5.4,10.3-10.6,10Z"/>
      <path class="cls-5" d="M223.3,320.5c2.6-1.8,2.8-8,2.8-15.6s0-11.1-.3-15.7c-6.5,2.7-6.8,7.8-7.6,10.9h-.2c-.3-3.5-.9-8-1.9-11.5h25.5c-1,3.6-1.6,8-1.9,11.6h-.2c-.7-3.1-1.1-8.2-7.5-10.9-.3,4.7-.3,11.1-.3,15.7,0,7.6.1,14,2.7,15.6v.4h-11v-.4Z"/>
      <path class="cls-5" d="M250.5,316.6c0,1.6.3,3,1.8,3,4.7,0,7.5-1.9,8.9-9.9h.2c0,4,.4,7.6,1.2,11.1h-20.5v-.4c2.8-2.2,2.7-8.6,2.7-16.4s-.2-13-2.7-15.3v-.4h20.9c-.9,3-1.8,6.4-1.9,9.9h-.2c-1.4-5.2-1.9-8.7-8-8.6h-2.3c-.2,4.8-.2,9.5-.2,14.2,1.2-1.4,4.1-2.9,6.3-2.9s2.7.7,2.8,2.5c0,2-2,3.1-2,3.1h0c-.5-1.6-2-2.9-3.7-2.9s-2.2.4-3.2,1.5c0,4.9,0,6.3.2,11.4Z"/>
      <path class="cls-5" d="M306.4,329.1c3.3,0,6.2-1.1,8.1-4.6,1.7,1,2.5,2.5,2.5,4.2,0,3.2-3.1,6.8-8.4,7-15.7.6-26.4-13.1-35.9-29,0,6.5.3,12.3,2.7,14v.4h-11.1v-.4c3.1-2.1,2.8-11.1,2.8-16.1s-.1-14.2-2.8-15.5v-.4s10,0,10,0c8.2,0,12,4.4,12.1,10.4,0,7.5-4.4,9.5-8.5,9.6-.7,0-.9.2-1.6,0,3.9,6.3,19.2,20.5,30,20.5ZM280.3,298.6c0-4.6-2.2-8.8-7.6-8.8v11.4c0,4.2,1.4,5.6,3,5.6,2.1,0,4.7-2.7,4.6-8.3Z"/>
      <path class="cls-5" d="M292.1,320.5c1.9-1,2.7-3.4,2.7-6.7s.1-4.9-.3-7.1c-.5-2.1-2.2-6.1-3.2-8.5-2.5-5.8-3.9-8.4-6-9.3v-.4h11.4v.4c-1.3.4-1.8,3.8-.4,7.3,1.1,2.7,2.2,5.9,3.4,8.6l2.9-8.4c.8-2.2,2-6.3-.3-7.5v-.4h6.7v.4c-2.3.5-3.7,4.3-4.9,7.2-1.6,3.9-3.1,8.5-3.6,11-.4,2.1-.2,4.2-.2,6.7s.8,5.7,2.7,6.7v.4h-10.8v-.4Z"/>
      <circle class="cls-5" cx="229.2" cy="110.9" r="30.3"/>
      <polygon class="cls-2" points="288.8 212.7 169.8 212.7 229.3 109.6 288.8 212.7"/>
    </g>
    <polygon class="cls-4" points="266.2 169.7 295.1 166.6 266.4 163.7 263.2 133.1 260.1 163.7 230.9 166.8 260.4 169.8 263.4 197.3 266.2 169.7"/>
  </g>
</svg>